<svg width="38" height="38" viewBox="0 0 38 38" fill="none" xmlns="http://www.w3.org/2000/svg">
<style> @media (prefers-color-scheme: dark) { path { fill: white } } </style>
<path fill-rule="evenodd" clip-rule="evenodd" d="M18.8496 0.194092C29.251 0.194092 37.6975 8.65501 37.6975 19.0766C37.6975 29.4955 29.251 37.9564 18.8496 37.9564C8.44565 37.9564 -0.000976562 29.4955 -0.000976562 19.0766C-0.000976562 8.65501 8.44565 0.194092 18.8496 0.194092ZM18.8496 7.4478L6.05388 20.3899L6.11745 20.4987L18.8496 11.2312L31.5818 20.4987L31.6427 20.3899L18.8496 7.4478ZM18.8496 16.7736L6.05388 29.7184L6.11745 29.8245L18.8496 20.5597L31.5818 29.8245L31.6427 29.7184L18.8496 16.7736ZM18.8496 12.1094L6.05388 25.0541L6.11745 25.1629L18.8496 15.8954L31.5818 25.1629L31.6427 25.0541L18.8496 12.1094Z" fill="#10054C"/>
</svg>
