<?xml version="1.0" standalone="no"?>
<!DOCTYPE svg PUBLIC "-//W3C//DTD SVG 20010904//EN"
 "http://www.w3.org/TR/2001/REC-SVG-20010904/DTD/svg10.dtd">
<svg version="1.0" xmlns="http://www.w3.org/2000/svg"
 width="700.000000pt" height="700.000000pt" viewBox="0 0 700.000000 700.000000"
 preserveAspectRatio="xMidYMid meet">
<metadata>
Created by potrace 1.14, written by Peter Selinger 2001-2017
</metadata>
<g transform="translate(0.000000,700.000000) scale(0.100000,-0.100000)"
fill="#000000" stroke="none">
<path d="M3357 6964 c-1 -1 -56 -5 -121 -8 -66 -4 -122 -8 -125 -10 -3 -2 -39
-7 -79 -10 -40 -4 -78 -9 -85 -11 -6 -2 -29 -7 -50 -10 -131 -19 -400 -86
-542 -135 -332 -116 -616 -263 -926 -482 -166 -117 -448 -379 -600 -558 -63
-73 -214 -272 -231 -303 -6 -12 -15 -26 -19 -31 -56 -68 -225 -375 -284 -518
-15 -34 -33 -76 -41 -93 -38 -84 -120 -337 -154 -477 -39 -158 -71 -356 -88
-533 -14 -156 -5 -661 13 -718 2 -6 6 -34 9 -62 3 -27 8 -59 10 -70 2 -11 7
-40 11 -65 14 -87 27 -146 52 -240 8 -30 17 -64 19 -75 8 -43 87 -273 130
-378 38 -94 145 -320 173 -367 5 -8 37 -62 72 -120 421 -707 1119 -1261 1907
-1514 102 -33 258 -75 337 -91 61 -13 181 -34 225 -40 25 -3 52 -8 60 -10 76
-19 613 -28 765 -13 655 65 1277 309 1785 702 870 672 1368 1687 1363 2781 -1
120 -9 289 -18 355 -2 19 -7 55 -10 80 -5 40 -24 156 -41 245 -2 17 -21 93
-41 170 -194 761 -645 1435 -1283 1916 -86 65 -231 163 -285 193 -16 9 -48 28
-70 41 -72 45 -358 182 -465 223 -121 47 -298 104 -395 128 -65 16 -154 37
-170 40 -11 1 -33 6 -50 9 -16 3 -46 8 -65 11 -19 3 -46 7 -60 10 -14 2 -49 7
-79 10 -30 3 -63 7 -74 10 -49 9 -472 25 -480 18z m1023 -2254 c349 -354 818
-828 1042 -1054 224 -226 403 -415 399 -419 -5 -5 -60 29 -124 75 -98 71 -854
621 -912 664 -67 49 -1073 781 -1182 860 l-132 95 -93 -68 c-51 -37 -97 -71
-103 -76 -5 -4 -116 -85 -245 -178 -129 -94 -271 -197 -315 -229 -44 -33 -303
-221 -575 -419 -272 -198 -499 -363 -505 -368 -5 -5 -30 -23 -55 -41 -25 -17
-70 -49 -100 -72 -30 -22 -80 -58 -110 -79 -30 -22 -95 -70 -145 -105 -91 -66
-105 -74 -105 -57 0 6 163 175 363 376 199 202 486 492 637 645 151 153 517
524 814 824 l538 545 137 -139 c75 -76 422 -427 771 -780z m121 -982 c350
-354 792 -800 982 -993 190 -192 342 -354 338 -358 -5 -5 -57 27 -116 70 -58
43 -119 87 -135 98 -16 11 -120 87 -232 168 -112 82 -212 155 -223 163 -11 7
-61 44 -111 81 -51 38 -102 75 -114 83 -12 8 -37 26 -55 40 -18 14 -44 33 -57
42 -81 59 -638 463 -661 480 -15 12 -116 86 -225 164 -108 79 -201 147 -207
151 -5 5 -32 24 -60 43 -27 19 -52 37 -55 41 -3 3 -26 20 -51 38 l-46 33 -379
-277 c-209 -152 -395 -287 -414 -300 -19 -13 -375 -271 -790 -574 -415 -303
-758 -551 -762 -551 -5 0 -8 5 -8 11 0 5 153 164 339 352 187 188 440 444 563
569 123 124 499 506 837 847 l614 621 196 -199 c108 -110 482 -489 832 -843z
m-12 -846 c1214 -1228 1340 -1357 1331 -1366 -4 -4 -37 14 -73 40 -84 63 -28
22 -721 526 -330 240 -605 440 -611 445 -5 4 -134 98 -285 207 -151 110 -303
220 -337 245 -80 60 -216 159 -275 200 l-46 33 -149 -108 c-81 -59 -188 -137
-238 -174 -49 -37 -112 -82 -140 -102 -39 -27 -400 -289 -500 -362 -11 -8 -54
-40 -95 -70 -41 -30 -86 -63 -100 -73 -128 -96 -1119 -813 -1124 -813 -23 0
26 54 286 316 161 162 397 400 523 529 127 128 524 531 884 895 l655 661 194
-198 c107 -109 476 -483 821 -831z"/>
</g>
</svg>
