<svg xmlns="http://www.w3.org/2000/svg" fill-rule="evenodd" stroke-linecap="round" stroke-linejoin="round" stroke-miterlimit="1.5" clip-rule="evenodd" viewBox="0 0 91 91"><path fill="none" d="M0 0h90.384v90.384H0z"/><circle cx="462.735" cy="214.863" r="7.326" fill="none" stroke="#10054c" stroke-width="3.28" transform="translate(-559.092 -246.13) scale(1.27142)"/><path fill="none" stroke="#10054c" stroke-width="3.53" d="M462.735 252.34v4.645h-21.551v-14.333c0-1.929.651-3.78 1.809-5.144 1.158-1.364 2.728-2.131 4.366-2.131h5.482" transform="matrix(1.27142 0 0 1.07907 -545.393 -207.175)"/><path fill="none" stroke="#0084c6" stroke-linecap="butt" stroke-width="4.17" d="m68.081 37.364 6.768 3.908-18.115 31.377-6.752-3.899a6.427 6.427 0 0 0-2.351-8.776 6.428 6.428 0 0 0-8.777 2.352l-6.752-3.899L50.217 27.05l6.768 3.908a6.43 6.43 0 0 0 2.584 8.339 6.43 6.43 0 0 0 8.512-1.933z"/><path fill="none" stroke="#0084c6" stroke-linecap="butt" stroke-width="4.04" d="M876.442 216.511v5.127" transform="rotate(120 524.111 -92.696) scale(1 1.0595)"/><path fill="none" stroke="#0084c6" stroke-linecap="butt" stroke-width="4.04" d="M876.442 216.511v5.127" transform="rotate(120 521.897 -96.531) scale(1 1.0595)"/><path fill="none" stroke="#0084c6" stroke-linecap="butt" stroke-width="4.04" d="M876.442 216.511v5.127" transform="rotate(120 519.683 -100.366) scale(1 1.0595)"/><path fill="none" stroke="#0084c6" stroke-linecap="butt" stroke-width="4.04" d="M876.442 216.511v5.127" transform="rotate(120 517.469 -104.202) scale(1 1.0595)"/></svg>