<svg xmlns="http://www.w3.org/2000/svg" fill-rule="evenodd" stroke-linecap="round" stroke-linejoin="round" stroke-miterlimit="1.5" clip-rule="evenodd" viewBox="0 0 91 91"><circle cx="462.735" cy="214.863" r="7.326" fill="none" stroke="#0084c6" stroke-width="5.23" transform="translate(-349.442 -124.583) scale(.7964)"/><circle cx="462.735" cy="214.863" r="7.326" fill="none" stroke="#0084c6" stroke-width="5.23" transform="translate(-324.871 -124.583) scale(.7964)"/><path fill="none" stroke="#0084c6" stroke-width="5.64" d="M456.56 235.377c1.638 0 3.208.767 4.366 2.131 1.158 1.364 1.809 3.215 1.809 5.144v14.333h-21.551v-14.333c0-1.929.651-3.78 1.809-5.144 1.158-1.364 2.728-2.131 4.366-2.131h9.201z" transform="matrix(.7964 0 0 .67592 -340.861 -100.181)"/><path fill="none" stroke="#0084c6" stroke-width="5.64" d="M456.56 235.377c1.638 0 3.208.767 4.366 2.131 1.158 1.364 1.809 3.215 1.809 5.144v14.333h-21.551v-14.333c0-1.929.651-3.78 1.809-5.144 1.158-1.364 2.728-2.131 4.366-2.131h9.201z" transform="matrix(.7964 0 0 .67592 -316.29 -100.181)"/><path fill="none" stroke="#10054c" stroke-width="3.4" d="M620.404 74.642h35.175c6.441 0 12.281 2.859 14.916 7.301l1.413 2.381c.578.975.463 2.105-.305 3.001-.768.897-2.085 1.438-3.498 1.438h-18.312" transform="matrix(1.04424 0 0 1.38144 -622.697 -70.25)"/><path fill="none" stroke="#10054c" stroke-width="4.17" d="M60.978 32.863v6.391a4.73 4.73 0 0 0 1.384 3.343 4.73 4.73 0 0 0 3.343 1.384h11.002"/><path fill="none" stroke="#10054c" stroke-width="5.68" d="M463.59 207.537V190.25h5.027c3.23 0 6.21 2.023 7.797 5.293l5.819 11.994" transform="matrix(.78595 0 0 .6763 -353.86 -107.494)"/><path fill="none" stroke="#10054c" stroke-width="5.68" d="M463.59 207.537V190.25h5.027c3.23 0 6.21 2.023 7.797 5.293l5.819 11.994" transform="matrix(.78595 0 0 .6763 -326.778 -107.494)"/><path fill="none" d="M0 0h90.384v90.384H0z"/></svg>