<svg xmlns="http://www.w3.org/2000/svg" fill-rule="evenodd" stroke-linecap="round" stroke-linejoin="round" stroke-miterlimit="1.5" clip-rule="evenodd" viewBox="0 0 91 91"><path fill="none" stroke="#10054c" stroke-width="5.68" d="M463.59 207.537V190.25h5.027c3.23 0 6.21 2.023 7.797 5.293l5.819 11.994" transform="matrix(.78595 0 0 .6763 -327.259 -107.494)"/><path fill="none" stroke="#10054c" stroke-width="3.4" d="M620.404 74.642h35.175c6.441 0 12.281 2.859 14.916 7.301l1.413 2.381c.578.975.463 2.105-.305 3.001-.768.897-2.085 1.438-3.498 1.438h-21.79" transform="matrix(1.04424 0 0 1.38144 -622.316 -70.25)"/><path fill="none" stroke="#10054c" stroke-width="4.17" d="M61.359 32.863v6.391a4.73 4.73 0 0 0 1.384 3.343 4.73 4.73 0 0 0 3.343 1.384h11.002"/><path fill="none" stroke="#10054c" stroke-width="5.68" d="M463.59 207.537V190.25h5.027c3.23 0 6.21 2.023 7.797 5.293l5.819 11.994" transform="matrix(.78595 0 0 .6763 -353.478 -107.494)"/><path fill="none" stroke="#0084c6" stroke-width="4.163" d="M10.882 56.411h17v17h-17z"/><path fill="none" stroke="#0084c6" stroke-linecap="butt" stroke-width="3.77" d="M606.202 231.085v5.472" transform="matrix(1 0 0 1.20267 -586.765 -221.509)"/><path fill="none" stroke="#0084c6" stroke-width="4.163" d="M27.882 56.411h17v17h-17z"/><path fill="none" stroke="#0084c6" stroke-linecap="butt" stroke-width="3.77" d="M606.202 231.085v5.472" transform="matrix(1 0 0 1.20267 -569.765 -221.509)"/><path fill="none" stroke="#0084c6" stroke-width="4.163" d="M19.382 39.411h17v17h-17z"/><path fill="none" stroke="#0084c6" stroke-linecap="butt" stroke-width="3.77" d="M606.202 231.085v5.472" transform="matrix(1 0 0 1.20267 -578.265 -238.509)"/><path fill="none" d="M0 0h90.384v90.384H0z"/></svg>