<svg xmlns="http://www.w3.org/2000/svg" width="331" height="267" fill="none"><path fill="#0084C7" fill-rule="evenodd" d="m165.837 41.21.534.337 161.354 101.828L165.837 1.381 3.829 143.45 165.303 41.547l.534-.336zM.668 144.894 165.837.051l165.135 144.842-.787 1.218L165.837 42.393 1.488 146.111l-.82-1.218zm165.169-43.292.534.337 161.354 101.828L165.837 61.772 3.829 203.84l161.474-101.903.534-.337zM.668 205.284 165.837 60.441l165.135 144.843-.787 1.217-164.348-103.717L1.488 206.501l-.82-1.217zm165.703-42.956-.534-.337-.534.337L3.829 264.231l162.008-142.07 161.888 141.994-161.354-101.827zm-.534-41.497L.668 265.673l.82 1.218 164.349-103.718 164.348 103.718.787-1.218-165.135-144.842z" clip-rule="evenodd"/></svg>