<svg width="201" height="46" viewBox="0 0 201 46" fill="none" xmlns="http://www.w3.org/2000/svg">
<g clip-path="url(#clip0_548_162)">
<path d="M46.2445 9.46649C47.001 8.68807 47.8981 8.11414 48.9377 7.74641C49.9773 7.37868 51.0323 7.19482 52.1044 7.19482C54.2882 7.19482 55.863 7.71033 56.8288 8.73962C57.7946 9.77064 58.2783 11.3378 58.2783 13.441V19.7835C58.2783 20.2045 58.2989 20.641 58.3418 21.0929C58.383 21.5465 58.4362 21.9607 58.4979 22.3404H56.1357C56.0517 22.0036 56.0054 21.6307 55.9951 21.22C55.9831 20.8094 55.9779 20.4468 55.9779 20.1306H55.9162C55.4324 20.8884 54.7874 21.5087 53.9777 21.9933C53.1697 22.4762 52.1988 22.7184 51.0649 22.7184C50.3084 22.7184 49.5999 22.6239 48.9377 22.4349C48.2773 22.2459 47.6992 21.9658 47.2051 21.5981C46.7128 21.2303 46.3182 20.7733 46.0249 20.2251C45.7298 19.6787 45.584 19.048 45.584 18.3332C45.584 17.1132 45.8979 16.156 46.5275 15.4618C47.1588 14.7676 47.941 14.2521 48.876 13.9153C49.8092 13.5785 50.8178 13.3689 51.8986 13.2847C52.981 13.2005 53.9726 13.1575 54.8766 13.1575H55.8218V12.7159C55.8218 11.6436 55.501 10.8326 54.8595 10.2861C54.2196 9.73971 53.3224 9.46649 52.1662 9.46649C51.3685 9.46649 50.5863 9.59709 49.8195 9.86C49.0544 10.1229 48.3768 10.5284 47.7884 11.0749L46.2445 9.46649ZM53.3636 15.2402C51.7888 15.2402 50.5399 15.4618 49.6153 15.9034C48.6907 16.3451 48.2292 17.0702 48.2292 18.0806C48.2292 19.0051 48.5397 19.6632 49.159 20.0516C49.7783 20.4416 50.5502 20.6358 51.4731 20.6358C52.1885 20.6358 52.8129 20.5155 53.3481 20.2732C53.8833 20.0309 54.3294 19.7113 54.6862 19.311C55.043 18.9106 55.3175 18.4432 55.5062 17.9071C55.6949 17.3709 55.7995 16.797 55.8218 16.187V15.2402H53.3636Z" fill="#10054C"/>
<path d="M69.1764 22.3403H66.4677L60.4517 7.57275H63.3182L67.9173 19.1528H67.9808L72.3586 7.57275H75.0038L69.1764 22.3403Z" fill="#10054C"/>
<path d="M77.5566 7.57279H80.0131V22.3404H77.5566V7.57279ZM76.9888 1.79911C76.9888 1.31454 77.162 0.893544 77.5086 0.536126C77.8551 0.178708 78.2805 0 78.7848 0C79.2892 0 79.7147 0.178708 80.0612 0.536126C80.4077 0.893544 80.5792 1.31454 80.5792 1.79911C80.5792 2.32493 80.4128 2.75624 80.0766 3.09132C79.7404 3.42812 79.3098 3.59651 78.7848 3.59651C78.2599 3.59651 77.8293 3.42812 77.4931 3.09132C77.1569 2.75624 76.9888 2.32493 76.9888 1.79911Z" fill="#10054C"/>
<path d="M84.3909 9.46649C85.1474 8.68807 86.0463 8.11414 87.0842 7.74641C88.1238 7.37868 89.1805 7.19482 90.2509 7.19482C92.4347 7.19482 94.0095 7.71033 94.9753 8.73962C95.9411 9.77064 96.4248 11.3378 96.4248 13.441V19.7835C96.4248 20.2045 96.4454 20.641 96.4883 21.0929C96.5294 21.5465 96.5827 21.9607 96.6461 22.3404H94.2822C94.1982 22.0036 94.1518 21.6307 94.1415 21.22C94.1313 20.8094 94.1261 20.4468 94.1261 20.1306H94.0626C93.5789 20.8884 92.9339 21.5087 92.1242 21.9933C91.3162 22.4762 90.3452 22.7184 89.2113 22.7184C88.4548 22.7184 87.7464 22.6239 87.0842 22.4349C86.4237 22.2459 85.8456 21.9658 85.3533 21.5981C84.8592 21.2303 84.4647 20.7733 84.1714 20.2251C83.878 19.6787 83.7305 19.048 83.7305 18.3332C83.7305 17.1132 84.0444 16.156 84.6757 15.4618C85.3053 14.7676 86.0875 14.2521 87.0224 13.9153C87.9556 13.5785 88.9643 13.3689 90.0468 13.2847C91.1275 13.2005 92.119 13.1575 93.0231 13.1575H93.9683V12.7159C93.9683 11.6436 93.6475 10.8326 93.0077 10.2861C92.3661 9.73971 91.4689 9.46649 90.3144 9.46649C89.515 9.46649 88.7327 9.59709 87.9676 9.86C87.2008 10.1229 86.5232 10.5284 85.9348 11.0749L84.3909 9.46649ZM91.5101 15.2402C89.9353 15.2402 88.6864 15.4618 87.7618 15.9034C86.8389 16.3451 86.3757 17.0702 86.3757 18.0806C86.3757 19.0051 86.6862 19.6632 87.3055 20.0516C87.9248 20.4416 88.6967 20.6358 89.6214 20.6358C90.335 20.6358 90.9594 20.5155 91.4946 20.2732C92.0298 20.0309 92.4759 19.7113 92.8344 19.311C93.1912 18.9106 93.464 18.4432 93.6527 17.9071C93.8414 17.3709 93.946 16.797 93.9683 16.187V15.2402H91.5101Z" fill="#10054C"/>
<path d="M107.323 22.3403H104.614L98.5981 7.57275H101.465L106.064 19.1528H106.127L110.505 7.57275H113.15L107.323 22.3403Z" fill="#10054C"/>
<path d="M128.65 19.6581C127.768 20.7939 126.802 21.5878 125.752 22.0397C124.703 22.4934 123.483 22.7184 122.097 22.7184C120.942 22.7184 119.903 22.514 118.98 22.1033C118.055 21.6926 117.273 21.141 116.633 20.4468C115.991 19.7526 115.499 18.9329 115.153 17.9861C114.806 17.0393 114.633 16.0289 114.633 14.9566C114.633 13.8208 114.822 12.7743 115.199 11.8172C115.578 10.8601 116.103 10.0387 116.774 9.35651C117.446 8.6726 118.244 8.14163 119.169 7.76187C120.091 7.38383 121.1 7.19482 122.193 7.19482C123.222 7.19482 124.166 7.36838 125.027 7.71549C125.888 8.0626 126.629 8.56607 127.248 9.22935C127.868 9.89264 128.346 10.702 128.681 11.6591C129.017 12.6162 129.185 13.704 129.185 14.9257V15.7144H117.278C117.321 16.3451 117.472 16.9499 117.734 17.5273C117.997 18.1064 118.338 18.6116 118.758 19.0429C119.179 19.4742 119.673 19.8161 120.239 20.0687C120.807 20.3196 121.426 20.4468 122.097 20.4468C123.169 20.4468 124.071 20.2578 124.807 19.878C125.541 19.5 126.204 18.9432 126.792 18.206L128.65 19.6581ZM126.54 13.6318C126.497 12.3688 126.089 11.3601 125.31 10.6023C124.534 9.84452 123.462 9.46649 122.097 9.46649C120.733 9.46649 119.63 9.84452 118.789 10.6023C117.95 11.3601 117.446 12.3688 117.278 13.6318H126.54Z" fill="#10054C"/>
<path d="M132.681 11.0749C132.681 10.4013 132.66 9.77063 132.619 9.18295C132.576 8.59356 132.556 8.05743 132.556 7.57285H134.887C134.887 7.97323 134.897 8.37189 134.918 8.77226C134.938 9.17092 134.95 9.58162 134.95 10.0026H135.012C135.18 9.64519 135.417 9.2981 135.721 8.9613C136.026 8.6245 136.388 8.32549 136.808 8.06258C137.229 7.79967 137.7 7.58833 138.225 7.43024C138.75 7.27387 139.318 7.19482 139.927 7.19482C140.893 7.19482 141.728 7.34088 142.432 7.63643C143.135 7.93027 143.716 8.34096 144.18 8.86678C144.641 9.3926 144.982 10.0284 145.204 10.7759C145.423 11.5216 145.533 12.3379 145.533 13.2211V22.3404H143.077V13.4737C143.077 12.2331 142.804 11.2536 142.258 10.5387C141.711 9.8239 140.862 9.46649 139.706 9.46649C138.908 9.46649 138.22 9.60224 137.642 9.87546C137.066 10.1504 136.592 10.5388 136.225 11.0439C135.858 11.5491 135.585 12.1488 135.407 12.8413C135.228 13.5356 135.139 14.3037 135.139 15.1457V22.3404H132.681V11.0749Z" fill="#10054C"/>
<path d="M157.944 9.65532H153.597V17.0391C153.597 17.522 153.608 17.9705 153.63 18.3794C153.65 18.7901 153.735 19.1475 153.882 19.4534C154.028 19.7575 154.249 19.9998 154.543 20.1785C154.836 20.3572 155.256 20.4466 155.803 20.4466C156.16 20.4466 156.527 20.4037 156.905 20.3195C157.284 20.2353 157.641 20.1098 157.977 19.9414L158.071 22.1821C157.651 22.3712 157.184 22.5086 156.67 22.5928C156.155 22.677 155.666 22.7183 155.205 22.7183C154.321 22.7183 153.618 22.6031 153.093 22.3712C152.568 22.1392 152.16 21.8144 151.865 21.3934C151.571 20.9724 151.378 20.4518 151.283 19.8314C151.187 19.2111 151.141 18.5221 151.141 17.7643V9.65532H147.928V7.57268H151.141V3.37646H153.597V7.57268H157.944V9.65532Z" fill="#10054C"/>
<path d="M173.506 18.8366C173.506 19.5102 173.528 20.1408 173.569 20.7302C173.612 21.3196 173.632 21.8557 173.632 22.3403H171.301C171.301 21.9399 171.291 21.5413 171.27 21.1409C171.248 20.7405 171.238 20.3316 171.238 19.9106H171.176C171.008 20.268 170.771 20.6151 170.466 20.9519C170.162 21.2887 169.8 21.5877 169.38 21.8506C168.96 22.1135 168.488 22.3248 167.963 22.4812C167.438 22.6393 166.87 22.7184 166.261 22.7184C165.295 22.7184 164.46 22.5706 163.757 22.2767C163.053 21.9829 162.47 21.5722 162.009 21.0464C161.547 20.5206 161.206 19.8848 160.984 19.1373C160.765 18.3898 160.653 17.5753 160.653 16.6921V7.57275H163.112V16.4395C163.112 17.6801 163.384 18.6579 163.93 19.3744C164.475 20.0893 165.326 20.4467 166.481 20.4467C167.28 20.4467 167.968 20.3092 168.544 20.036C169.123 19.7628 169.594 19.3744 169.963 18.8692C170.33 18.364 170.603 17.7643 170.781 17.0701C170.96 16.3759 171.049 15.6078 171.049 14.7675V7.57275H173.506V18.8366Z" fill="#10054C"/>
<path d="M177.852 11.0749C177.852 10.4013 177.832 9.77063 177.791 9.18295C177.748 8.59356 177.727 8.05743 177.727 7.57285H180.058C180.058 7.97323 180.069 8.37189 180.089 8.77226C180.11 9.17092 180.122 9.58162 180.122 10.0026H180.184C180.352 9.64519 180.588 9.2981 180.894 8.9613C181.197 8.6245 181.559 8.32549 181.98 8.06258C182.4 7.79967 182.872 7.58833 183.397 7.43024C183.922 7.27387 184.489 7.19482 185.098 7.19482C185.266 7.19482 185.435 7.20512 185.603 7.22574C185.771 7.24636 185.939 7.28934 186.107 7.3512L185.949 9.84452C185.529 9.71908 185.088 9.6555 184.625 9.6555C183.114 9.6555 182.016 10.1435 181.333 11.123C180.652 12.1007 180.311 13.4411 180.311 15.1457V22.3404H177.852V11.0749Z" fill="#10054C"/>
<path d="M188.437 9.46649C189.193 8.68807 190.091 8.11414 191.13 7.74641C192.17 7.37868 193.225 7.19482 194.297 7.19482C196.481 7.19482 198.055 7.71033 199.021 8.73962C199.987 9.77064 200.471 11.3378 200.471 13.441V19.7835C200.471 20.2045 200.491 20.641 200.534 21.0929C200.575 21.5465 200.629 21.9607 200.69 22.3404H198.328C198.244 22.0036 198.198 21.6307 198.187 21.22C198.175 20.8094 198.17 20.4468 198.17 20.1306H198.109C197.625 20.8884 196.98 21.5087 196.17 21.9933C195.362 22.4762 194.391 22.7184 193.257 22.7184C192.501 22.7184 191.792 22.6239 191.13 22.4349C190.47 22.2459 189.892 21.9658 189.397 21.5981C188.905 21.2303 188.511 20.7733 188.217 20.2251C187.922 19.6787 187.776 19.048 187.776 18.3332C187.776 17.1132 188.09 16.156 188.722 15.4618C189.351 14.7676 190.133 14.2521 191.068 13.9153C192.002 13.5785 193.01 13.3689 194.091 13.2847C195.173 13.2005 196.165 13.1575 197.069 13.1575H198.014V12.7159C198.014 11.6436 197.693 10.8326 197.054 10.2861C196.412 9.73971 195.515 9.46649 194.36 9.46649C193.561 9.46649 192.779 9.59709 192.012 9.86C191.247 10.1229 190.569 10.5284 189.981 11.0749L188.437 9.46649ZM195.556 15.2402C193.981 15.2402 192.732 15.4618 191.808 15.9034C190.883 16.3451 190.422 17.0702 190.422 18.0806C190.422 19.0051 190.732 19.6632 191.351 20.0516C191.971 20.4416 192.743 20.6358 193.667 20.6358C194.381 20.6358 195.005 20.5155 195.541 20.2732C196.076 20.0309 196.522 19.7113 196.88 19.311C197.237 18.9106 197.51 18.4432 197.699 17.9071C197.887 17.3709 197.992 16.797 198.014 16.187V15.2402H195.556Z" fill="#10054C"/>
<path d="M51.8317 30.3918H53.4139L59.442 44.5941H57.4794L56.0375 41.1044H48.9479L47.4858 44.5941H45.5835L51.8317 30.3918ZM52.5929 32.5569H52.5527L49.6087 39.5386H55.3964L52.5929 32.5569Z" fill="#10054C"/>
<path d="M63.6274 30.3918H72.5391V31.9553H65.3095V36.4093H72.0585V37.9751H65.3095V43.0283H72.8997V44.5941H63.6274V30.3918Z" fill="#10054C"/>
<path d="M77.8066 30.3918H81.4314C82.1124 30.3918 82.7899 30.4309 83.4642 30.5112C84.1383 30.5916 84.7424 30.7661 85.2765 31.0324C85.8105 31.301 86.2446 31.6913 86.5783 32.2056C86.912 32.7222 87.0789 33.4201 87.0789 34.304C87.0789 35.3463 86.7651 36.1889 86.1378 36.8295C85.5102 37.4723 84.6423 37.881 83.5343 38.0532L87.5595 44.5941H85.497L81.6517 38.2139H79.4887V44.5941H77.8066V30.3918ZM79.4887 36.6504H80.9909C81.458 36.6504 81.9421 36.6366 82.4429 36.6091C82.9435 36.5838 83.4041 36.4966 83.8247 36.3496C84.2451 36.2027 84.5923 35.9708 84.866 35.6563C85.1396 35.3418 85.2765 34.8918 85.2765 34.304C85.2765 33.7943 85.1765 33.3857 84.9762 33.078C84.7759 32.7727 84.5123 32.5339 84.185 32.3663C83.8579 32.201 83.4908 32.0885 83.0837 32.0357C82.6764 31.9829 82.2659 31.9553 81.852 31.9553H79.4887V36.6504Z" fill="#10054C"/>
<path d="M98.9349 44.9545C97.8533 44.9545 96.862 44.7685 95.9608 44.3943C95.0596 44.0178 94.2787 43.5012 93.6177 42.8377C92.9569 42.1765 92.4428 41.3867 92.0757 40.4707C91.7085 39.5546 91.5249 38.5628 91.5249 37.4929C91.5249 36.423 91.7085 35.4289 92.0757 34.5129C92.4428 33.5968 92.9569 32.8093 93.6177 32.1458C94.2787 31.4846 95.0596 30.9658 95.9608 30.5915C96.862 30.2173 97.8533 30.0291 98.9349 30.0291C100.016 30.0291 101.008 30.2173 101.909 30.5915C102.81 30.9658 103.591 31.4846 104.252 32.1458C104.913 32.8093 105.427 33.5968 105.794 34.5129C106.161 35.4289 106.345 36.423 106.345 37.4929C106.345 38.5628 106.161 39.5546 105.794 40.4707C105.427 41.3867 104.913 42.1765 104.252 42.8377C103.591 43.5012 102.81 44.0178 101.909 44.3943C101.008 44.7685 100.016 44.9545 98.9349 44.9545ZM98.9349 43.391C99.7625 43.391 100.52 43.2372 101.208 42.9295C101.895 42.6219 102.486 42.1994 102.98 41.6645C103.474 41.1296 103.858 40.5051 104.132 39.7888C104.405 39.0748 104.542 38.308 104.542 37.4929C104.542 36.6756 104.405 35.9111 104.132 35.1948C103.858 34.4807 103.474 33.854 102.98 33.319C102.486 32.7841 101.895 32.3639 101.208 32.0563C100.52 31.7486 99.7625 31.5948 98.9349 31.5948C98.107 31.5948 97.3493 31.7486 96.6617 32.0563C95.9741 32.3639 95.3835 32.7841 94.8895 33.319C94.3954 33.854 94.0115 34.4807 93.7378 35.1948C93.4641 35.9111 93.3273 36.6756 93.3273 37.4929C93.3273 38.308 93.4641 39.0748 93.7378 39.7888C94.0115 40.5051 94.3954 41.1296 94.8895 41.6645C95.3835 42.1994 95.9741 42.6219 96.6617 42.9295C97.3493 43.2372 98.107 43.391 98.9349 43.391Z" fill="#10054C"/>
<path d="M123.828 30.3918H125.41L131.438 44.5941H129.475L128.034 41.1044H120.944L119.482 44.5941H117.58L123.828 30.3918ZM124.589 32.5569H124.549L121.605 39.5386H127.393L124.589 32.5569Z" fill="#10054C"/>
<path d="M147.68 43.6298C146.866 44.0867 146.008 44.4196 145.107 44.6331C144.205 44.8489 143.294 44.9545 142.373 44.9545C141.265 44.9545 140.25 44.7754 139.329 44.4127C138.408 44.0522 137.61 43.5448 136.936 42.8882C136.261 42.2339 135.737 41.4487 135.364 40.5304C134.99 39.6143 134.803 38.6018 134.803 37.4929C134.803 36.3702 135 35.3486 135.394 34.4325C135.788 33.5165 136.331 32.7336 137.026 32.0861C137.72 31.4364 138.528 30.9336 139.449 30.5709C140.37 30.2104 141.365 30.0291 142.433 30.0291C143.368 30.0291 144.265 30.1714 145.127 30.4515C145.988 30.7316 146.759 31.2137 147.44 31.8956L146.178 33.2203C145.697 32.6969 145.113 32.2974 144.426 32.015C143.738 31.7349 143.034 31.5948 142.313 31.5948C141.499 31.5948 140.744 31.7418 140.05 32.0356C139.356 32.3295 138.751 32.7382 138.238 33.2593C137.723 33.7805 137.323 34.4027 137.036 35.1259C136.749 35.8468 136.605 36.6366 136.605 37.4929C136.605 38.3355 136.749 39.1184 137.036 39.8393C137.323 40.5625 137.723 41.187 138.238 41.715C138.751 42.2431 139.369 42.654 140.09 42.9479C140.811 43.2441 141.605 43.391 142.473 43.391C143.047 43.391 143.648 43.3198 144.276 43.1798C144.903 43.0397 145.477 42.8354 145.998 42.5668V38.2138H142.733V36.6503H147.68V43.6298Z" fill="#10054C"/>
<path d="M153.509 30.3918H162.42V31.9553H155.191V36.4093H161.939V37.9751H155.191V43.0283H162.78V44.5941H153.509V30.3918Z" fill="#10054C"/>
<path d="M167.687 30.3918H169.809L178.022 42.1857H178.061V30.3918H179.743V44.5941H177.62L169.408 32.7979H169.369V44.5941H167.687V30.3918Z" fill="#10054C"/>
<path d="M192.301 32.8989C192.019 32.4443 191.645 32.1137 191.178 31.9048C190.71 31.6981 190.224 31.5948 189.715 31.5948C189.342 31.5948 188.975 31.6407 188.615 31.7349C188.255 31.829 187.93 31.9691 187.643 32.155C187.357 32.3433 187.125 32.5912 186.953 32.8989C186.779 33.2065 186.692 33.567 186.692 33.9825C186.692 34.304 186.743 34.5863 186.841 34.8343C186.942 35.0822 187.107 35.305 187.334 35.507C187.561 35.7067 187.868 35.895 188.255 36.0672C188.643 36.2417 189.115 36.4161 189.676 36.5906C190.224 36.7628 190.754 36.9511 191.269 37.1508C191.783 37.3529 192.237 37.6054 192.631 37.9131C193.025 38.2207 193.339 38.6064 193.57 39.0679C193.804 39.5294 193.921 40.1079 193.921 40.8035C193.921 41.5107 193.781 42.126 193.502 42.6471C193.222 43.1683 192.851 43.5999 192.39 43.942C191.929 44.2841 191.398 44.5366 190.797 44.7042C190.197 44.8718 189.576 44.9545 188.936 44.9545C188.521 44.9545 188.109 44.9178 187.694 44.8443C187.279 44.7708 186.882 44.6583 186.502 44.5045C186.121 44.3507 185.764 44.1486 185.432 43.903C185.097 43.655 184.81 43.3497 184.57 42.9892L186.011 41.8045C186.319 42.328 186.745 42.7206 187.293 42.9892C187.84 43.2555 188.42 43.391 189.035 43.391C189.397 43.391 189.759 43.3359 190.128 43.2303C190.495 43.1224 190.825 42.9663 191.118 42.7573C191.411 42.5507 191.652 42.2936 191.84 41.9859C192.026 41.6783 192.12 41.3247 192.12 40.9229C192.12 40.4821 192.046 40.124 191.9 39.8485C191.753 39.5753 191.526 39.3388 191.219 39.1367C190.912 38.937 190.524 38.7556 190.057 38.5949C189.589 38.4342 189.041 38.2483 188.413 38.0347C187.907 37.874 187.439 37.6904 187.013 37.4814C186.584 37.2748 186.215 37.02 185.901 36.7192C185.587 36.4185 185.34 36.058 185.161 35.6378C184.98 35.2154 184.891 34.7103 184.891 34.1226C184.891 33.4407 185.024 32.8438 185.289 32.3364C185.558 31.829 185.918 31.4043 186.371 31.0622C186.825 30.7224 187.339 30.4653 187.914 30.2908C188.487 30.1163 189.09 30.0291 189.715 30.0291C190.518 30.0291 191.249 30.153 191.909 30.401C192.569 30.6489 193.16 31.0806 193.683 31.6959L192.301 32.8989Z" fill="#10054C"/>
<path d="M200.692 30.3918H199.009V44.5948H200.692V30.3918Z" fill="#10054C"/>
<path fill-rule="evenodd" clip-rule="evenodd" d="M19.728 7.19409C30.1294 7.19409 38.576 15.655 38.576 26.0766C38.576 36.4955 30.1294 44.9564 19.728 44.9564C9.32407 44.9564 0.877441 36.4955 0.877441 26.0766C0.877441 15.655 9.32407 7.19409 19.728 7.19409ZM19.728 14.4478L6.9323 27.3899L6.99586 27.4987L19.728 18.2312L32.4602 27.4987L32.5211 27.3899L19.728 14.4478ZM19.728 23.7736L6.9323 36.7184L6.99586 36.8245L19.728 27.5597L32.4602 36.8245L32.5211 36.7184L19.728 23.7736ZM19.728 19.1094L6.9323 32.0541L6.99586 32.1629L19.728 22.8954L32.4602 32.1629L32.5211 32.0541L19.728 19.1094Z" fill="#10054C"/>
</g>
<defs>
<clipPath id="clip0_548_162">
<rect width="200" height="45.045" fill="white" transform="translate(0.878418)"/>
</clipPath>
</defs>
</svg>
